<?xml version="1.0" standalone="no"?>
<!DOCTYPE svg PUBLIC "-//W3C//DTD SVG 1.1//EN" "http://www.w3.org/Graphics/SVG/1.1/DTD/svg11.dtd" >
<svg xmlns="http://www.w3.org/2000/svg" xmlns:xlink="http://www.w3.org/1999/xlink" version="1.1">
<metadata>
Created by FontForge 20170731 at Tue Aug 30 20:26:47 2016
 By Aleksey,,,
Copyright (c) 2014 by Typesketchbook. All rights reserved.
</metadata>
<defs>
<font id="TolyerNo1-BoldItalic" horiz-adv-x="465" >
  <font-face 
    font-family="Tolyer No.1 Bold Italic"
    font-weight="400"
    font-style="italic"
    font-stretch="normal"
    units-per-em="1100"
    panose-1="2 0 0 0 0 0 0 0 0 0"
    ascent="954"
    descent="-146"
    x-height="550"
    cap-height="550"
    bbox="0 -234 967.061 895"
    underline-thickness="35"
    underline-position="-267"
    unicode-range="U+0020-25CC"
  />
<missing-glyph horiz-adv-x="569" 
d="M30 0v628h509v-628h-509zM76 35q0 9 -8 11h8v-11zM493 590q0 -8 8 -8h-8v8zM501 46q-8 -2 -8 -9v9h8zM68 582q6 0 8 8v-8h-8zM76 46h417v536h-417v-536z" />
    <glyph glyph-name=".notdef" horiz-adv-x="569" 
d="M30 0v628h509v-628h-509zM76 35q0 9 -8 11h8v-11zM493 590q0 -8 8 -8h-8v8zM501 46q-8 -2 -8 -9v9h8zM68 582q6 0 8 8v-8h-8zM76 46h417v536h-417v-536z" />
    <glyph glyph-name=".null" horiz-adv-x="0" 
 />
    <glyph glyph-name="nonmarkingreturn" horiz-adv-x="283" 
 />
    <glyph glyph-name="space" unicode=" " horiz-adv-x="233" 
 />
    <glyph glyph-name="exclam" unicode="!" horiz-adv-x="296" 
d="M166 550h156l-86 -384h-118zM108 111h118l-19 -111h-118z" />
    <glyph glyph-name="quotedbl" unicode="&#x22;" 
d="M166 550h144l-58 -221h-102zM347 550h144l-58 -221h-102z" />
    <glyph glyph-name="numbersign" unicode="#" horiz-adv-x="748" 
d="M625 315l-39 -94h108l-22 -125h-137l-39 -96h-149l39 96h-76l-39 -96h-149l39 96h-75l22 125h104l39 94h-104l22 125h133l45 110h149l-45 -110h77l44 110h149l-44 -110h78l-22 -125h-108zM476 315h-76l-39 -94h76z" />
    <glyph glyph-name="dollar" unicode="$" horiz-adv-x="485" 
d="M442 157q-11 -64 -51.5 -105t-104.5 -55l-14 -78h-89l13 71q-20 1 -53.5 8t-59.5 27l20 113q17 -7 35 -12q16 -5 36.5 -8.5t41.5 -3.5q26 0 42 8t21 32q2 15 -9 29t-28.5 29t-38 33t-36.5 41t-24.5 52t-1.5 68q3 18 14 40.5t30.5 44t46.5 38.5t63 25l14 77h89l-13 -73
q26 -2 55 -5.5t50 -11.5l-22 -126q-18 2 -35 4q-14 2 -28.5 3t-23.5 1q-10 0 -23 -0.5t-25 -4.5t-21 -12t-12 -23q-1 -8 10 -21t28.5 -30.5t37 -38t36 -43t25.5 -46.5t5 -47z" />
    <glyph glyph-name="percent" unicode="%" horiz-adv-x="735" 
d="M339 0h-156l308 550h156zM276 550q20 0 38.5 -6.5t31.5 -18.5t20 -29.5t5 -39.5l-8 -43q-11 -44 -48.5 -68.5t-78.5 -24.5q-20 0 -38 6.5t-31.5 18.5t-20 29t-4.5 39l8 43q11 44 48 69t78 25zM275 434q2 11 -0.5 18.5t-13.5 7.5t-16.5 -7.5t-7.5 -18.5t1 -18t13 -8
q12 1 17 8t7 18zM594 230q41 0 70 -25t24 -69l-7 -43q-11 -44 -48.5 -68.5t-78.5 -24.5q-20 0 -38 6.5t-31.5 18.5t-20 29t-4.5 39l7 43q6 22 19 39.5t30 29.5t37.5 18.5t40.5 6.5zM593 114q2 11 -1 18.5t-14 7.5t-16 -7.5t-7 -18.5t0.5 -18t13.5 -8q11 1 16.5 8t7.5 18z
" />
    <glyph glyph-name="ampersand" unicode="&#x26;" horiz-adv-x="615" 
d="M581 208q-14 -28 -31.5 -50t-40.5 -45l27 -37l-98 -80q-6 6 -9.5 10t-6.5 7.5t-6 8t-9 11.5q-34 -20 -69.5 -31.5t-67.5 -11.5q-90 0 -136.5 42t-38.5 112q11 57 36.5 88t73.5 50q0 1 -6.5 9t-13.5 22t-10.5 35.5t1.5 51.5q7 40 24.5 70.5t43 50t57.5 29.5t69 10
q74 0 109.5 -39.5t27.5 -109.5q-14 -70 -42.5 -110.5t-61.5 -57.5q0 -1 42 -51q12 10 22 22t17 23zM317 380q-3 -17 3 -30.5t13 -13.5q11 0 17 13.5t9 30.5l1 11q3 17 2.5 31t-14.5 14q-15 0 -21 -14t-9 -31zM241 157q-3 -17 10.5 -31t39.5 -14q7 0 12 0.5t9 1.5t8 3.5
t11 6.5q-24 29 -38.5 48t-14.5 20q-11 -5 -22 -10.5t-15 -24.5z" />
    <glyph glyph-name="quotesingle" unicode="'" horiz-adv-x="284" 
d="M166 550h144l-58 -221h-102z" />
    <glyph glyph-name="parenleft" unicode="(" horiz-adv-x="349" 
d="M399 685q-46 -107 -80 -214t-54 -216q-17 -98 -22 -196t9 -198h-149q-14 100 -10 198t21 196q20 109 54 216t80 214h151z" />
    <glyph glyph-name="parenright" unicode=")" horiz-adv-x="349" 
d="M341 685q8 -107 5 -214t-23 -216q-17 -98 -48 -196t-79 -198h-149q48 100 78 198t47 196q20 109 23 216t-5 214h151z" />
    <glyph glyph-name="asterisk" unicode="*" horiz-adv-x="593" 
d="M317 387l16 163h119l-37 -160l137 74l33 -108l-146 -52l76 -120l-110 -65l-61 149l-115 -149l-86 65l118 119l-129 53l71 108z" />
    <glyph glyph-name="plus" unicode="+" horiz-adv-x="514" 
d="M214 179h-113l22 125h113l25 143h149l-25 -143h112l-22 -125h-112l-23 -132h-149z" />
    <glyph glyph-name="comma" unicode="," horiz-adv-x="284" 
d="M86 91h144l-76 -221h-102z" />
    <glyph glyph-name="hyphen" unicode="-" horiz-adv-x="464" 
d="M128 329h324l-23 -125h-324z" />
    <glyph glyph-name="period" unicode="." horiz-adv-x="290" 
d="M94 140h150l-26 -150h-150z" />
    <glyph glyph-name="slash" unicode="/" horiz-adv-x="507" 
d="M222 -49h-161l319 642h161z" />
    <glyph glyph-name="zero" unicode="0" horiz-adv-x="464" 
d="M330 560q35 0 67.5 -10t56.5 -30t37 -49t9 -67l-46 -258q-9 -38 -32 -67t-54 -49t-67 -30t-71 -10t-67.5 10t-56.5 30t-37 49t-9 67l46 258q9 38 32 67t54 49t67 30t71 10zM346 377q3 19 -8 33t-32 15q-21 -1 -37 -15t-19 -33l-38 -215q-3 -19 8 -33t32 -15q21 1 37 15
t19 33z" />
    <glyph glyph-name="one" unicode="1" horiz-adv-x="328" 
d="M129 0l70 402l-140 -65l24 136l157 77h134l-96 -550h-149z" />
    <glyph glyph-name="two" unicode="2" horiz-adv-x="450" 
d="M114 391q8 47 29 79t50 52t64 29t72 9t68 -9.5t52.5 -27.5t32.5 -45t7 -62l-4 -23q-8 -45 -38.5 -89.5t-66.5 -81.5t-70.5 -63t-50.5 -34h178l-22 -125h-362l22 125q4 3 23.5 18.5t47 38t58.5 49.5t58.5 54t46.5 51t22 40l2 15q3 17 -2 31t-24 14t-29 -14t-13 -31l-5 -33
h-151z" />
    <glyph glyph-name="three" unicode="3" horiz-adv-x="435" 
d="M208 -10q-37 0 -67.5 9t-50.5 29t-28 52t1 79h151q-4 -17 -1 -31t17 -14q19 0 28.5 13t12.5 30l2 11q3 17 -0.5 30.5t-25.5 13.5h-36l22 124h36q17 0 28 13.5t14 30.5l1 11q3 17 -2 31t-24 14q-14 0 -21.5 -14t-10.5 -31h-151q8 47 27.5 79t46.5 52t60.5 29t70.5 9
t68 -9.5t52.5 -27.5t32.5 -45t7 -62l-11 -60q-6 -25 -19 -45t-46 -37q26 -17 32.5 -37.5t3.5 -44.5l-10 -60q-9 -35 -29 -61.5t-48 -44.5t-62 -27t-71 -9z" />
    <glyph glyph-name="four" unicode="4" horiz-adv-x="439" 
d="M432 115h-44l-20 -115h-149l20 115h-209l22 125l221 310h191l-54 -310h44zM261 240l21 119l-82 -119h61z" />
    <glyph glyph-name="five" unicode="5" horiz-adv-x="412" 
d="M130 550h355l-22 -125h-206l-13 -76q8 1 14 1.5t16 0.5q45 0 74.5 -9.5t47.5 -24.5t26 -33.5t10.5 -36t1 -32.5t-2.5 -23l-10 -60q-9 -35 -29 -61.5t-48 -44.5t-62 -27t-71 -9t-68 9t-52 29t-30 52t0 79h151q-4 -17 -1 -31t22 -14t28.5 13t12.5 30l2 11q1 8 2 18.5
t-1.5 19.5t-9 15t-19.5 6q-12 0 -20.5 -7t-13.5 -15l-142 11z" />
    <glyph glyph-name="six" unicode="6" horiz-adv-x="458" 
d="M411 389q-32 36 -97 36q-21 0 -36 -14.5t-18 -33.5l-4 -25q10 5 21 7t21 2q35 0 65.5 -9t52.5 -27.5t32.5 -46.5t6.5 -66l-12 -66q-9 -38 -30.5 -67t-50 -49t-63 -30t-69.5 -10t-66 10t-53 30t-33.5 49t-7.5 67l46 258q9 38 32 67t53.5 49t66 30t70.5 10q51 0 92 -17.5
t67 -54.5zM273 233q-21 0 -31.5 -14.5t-14.5 -33.5l-2 -12q-3 -19 2.5 -33.5t26.5 -14.5t31.5 14.5t13.5 33.5l2 12q4 19 -1.5 33.5t-26.5 14.5z" />
    <glyph glyph-name="seven" unicode="7" horiz-adv-x="388" 
d="M24 0l257 425h-197l22 125h358l-22 -125l-257 -425h-161z" />
    <glyph glyph-name="eight" unicode="8" horiz-adv-x="440" 
d="M279 336q17 0 28 13.5t14 30.5l1 11q3 17 -2 31t-24 14t-29 -14t-13 -31l-1 -11q-3 -17 3 -30.5t23 -13.5zM240 114q19 0 28.5 13t12.5 30l2 11q3 17 -0.5 30.5t-25.5 13.5t-30.5 -13.5t-11.5 -30.5l-2 -11q-3 -17 2.5 -30t24.5 -13zM218 -10q-37 0 -68 9t-53 27
t-32.5 44.5t-6.5 61.5l10 60q6 24 20 44.5t46 37.5q-27 17 -33.5 37t-3.5 45l11 60q8 35 28 62t48.5 45t62.5 27.5t71 9.5t68 -9.5t52.5 -27.5t32.5 -45t7 -62l-11 -60q-6 -25 -19 -45t-46 -37q26 -17 32.5 -37.5t3.5 -44.5l-10 -60q-9 -35 -29 -61.5t-48 -44.5t-62 -27
t-71 -9z" />
    <glyph glyph-name="nine" unicode="9" horiz-adv-x="458" 
d="M143 161q16 -19 40.5 -27.5t56.5 -8.5q21 0 36 14.5t18 33.5l4 25q-10 -5 -21 -7t-21 -2q-35 0 -65.5 9t-52.5 27.5t-32.5 46.5t-6.5 66l12 66q9 38 30.5 67t50 49t63 30t69.5 10t66 -10t53 -30t33.5 -49t7.5 -67l-46 -258q-9 -38 -32 -67t-53.5 -49t-66 -30t-70.5 -10
q-51 0 -92 17.5t-67 54.5zM281 317q21 0 31.5 14.5t14.5 33.5l2 12q3 19 -2.5 33.5t-26.5 14.5t-31.5 -14.5t-13.5 -33.5l-2 -12q-4 -19 1.5 -33.5t26.5 -14.5z" />
    <glyph glyph-name="colon" unicode=":" horiz-adv-x="290" 
d="M94 140h150l-26 -150h-150zM140 400h150l-26 -150h-150z" />
    <glyph glyph-name="semicolon" unicode=";" horiz-adv-x="290" 
d="M140 400h150l-26 -150h-150zM92 91h144l-76 -221h-102z" />
    <glyph glyph-name="less" unicode="&#x3c;" horiz-adv-x="427" 
d="M124 309l314 152l-25 -143l-167 -81l138 -80l-25 -143l-260 152z" />
    <glyph glyph-name="equal" unicode="=" horiz-adv-x="439" 
d="M102 185h299l-22 -125h-299zM131 346h299l-23 -125h-299z" />
    <glyph glyph-name="greater" unicode="&#x3e;" horiz-adv-x="427" 
d="M386 166l-314 -152l25 143l166 80l-137 81l25 143l260 -152z" />
    <glyph glyph-name="question" unicode="?" horiz-adv-x="510" 
d="M227 194q2 9 11.5 24.5t23.5 33.5t30 37.5t29.5 36.5t23 30.5t10.5 19.5l2 15q3 17 -2 31t-24 14t-29 -14t-13 -31l-5 -33h-151l5 33q8 47 29 79t50 52t64 29t72 9t68 -9.5t52.5 -27.5t32.5 -45t7 -62l-4 -23q-3 -17 -23.5 -47t-45 -62.5t-45 -62.5t-23.5 -47l-4 -26
h-149zM212 117h150l-22 -127h-150z" />
    <glyph glyph-name="at" unicode="@" horiz-adv-x="674" 
d="M492 210q3 19 -2.5 33t-26.5 15q-21 -1 -31.5 -15t-13.5 -33l-2 -10q-4 -19 1.5 -33t26.5 -15q21 1 31.5 15t14.5 33zM228 53q-6 -35 9.5 -48.5t41.5 -13.5h171q15 0 42.5 3.5t47.5 9.5l-21 -121q-14 -4 -31 -8q-14 -3 -33 -5.5t-40 -2.5h-183q-35 0 -66 10t-52.5 30
t-32.5 49t-7 67l67 381q9 38 30.5 67t50 49t63 30t69.5 10h162q35 0 66 -10t53 -30t33 -49t7 -67l-66 -374h-76l-13 33q-29 -19 -55.5 -27t-48.5 -8q-71 0 -108.5 40t-29.5 116l9 53q9 38 25 66t35.5 46.5t41 27.5t42.5 9q35 0 55 -7.5t31 -25.5l4 24q3 19 -2.5 33.5
t-26.5 14.5h-137q-26 0 -46 -13.5t-26 -48.5z" />
    <glyph glyph-name="A" unicode="A" 
d="M455 0h-156l-5 94h-101l-29 -94h-154l230 550h175zM295 215l7 195l-66 -195h59z" />
    <glyph glyph-name="B" unicode="B" horiz-adv-x="450" 
d="M496 404q-11 -60 -32.5 -89t-49.5 -40q11 -6 20.5 -14t15 -21.5t6.5 -34.5t-5 -53q-8 -44 -29 -73.5t-50 -47t-63.5 -24.5t-69.5 -7h-189l96 550h189q35 0 67 -7.5t55 -24.5t34 -45t5 -69zM308 179q3 19 -4 27.5t-28 8.5h-53l-15 -90h53q21 0 30.5 7.5t13.5 26.5z
M344 380q3 19 -4 27.5t-28 8.5h-53l-16 -90h53q21 0 31 7.5t13 26.5z" />
    <glyph glyph-name="C" unicode="C" horiz-adv-x="397" 
d="M76 266q16 93 48 150.5t71 89.5t81 43t78 11q21 0 38.5 -2.5t31.5 -5.5q15 -4 28 -8l-21 -121q-38 12 -66 12q-58 0 -92 -46t-47 -118q-12 -68 7.5 -112t75.5 -44q28 0 70 12l-21 -121q-14 -4 -31 -8q-14 -3 -33 -5.5t-40 -2.5q-35 0 -72.5 10.5t-65 40.5t-40.5 84t0 141
z" />
    <glyph glyph-name="D" unicode="D" horiz-adv-x="444" 
d="M319 550q35 0 66 -10t53 -29.5t33 -48.5t7 -67l-42 -239q-9 -38 -30.5 -67t-50 -49t-63 -30t-69.5 -10h-173l96 550h173zM324 368q4 19 -1.5 33.5t-26.5 14.5h-24l-52 -292h24q21 0 31.5 14.5t14.5 33.5z" />
    <glyph glyph-name="E" unicode="E" horiz-adv-x="383" 
d="M273 425l-14 -83h122l-22 -122h-122l-16 -95h149l-22 -125h-298l96 550h298l-22 -125h-149z" />
    <glyph glyph-name="F" unicode="F" horiz-adv-x="378" 
d="M50 0l96 550h298l-22 -125h-149l-14 -83h122l-22 -122h-122l-38 -220h-149z" />
    <glyph glyph-name="G" unicode="G" horiz-adv-x="480" 
d="M309 425q-28 0 -39.5 -14.5t-14.5 -33.5l-38 -214q-3 -19 3.5 -33.5t34.5 -14.5t39.5 14.5t14.5 33.5l9 51h-47l19 109h196l-56 -323h-61l-11 34q-22 -18 -55 -31t-70 -13q-35 0 -67.5 10t-56 30t-36 49t-8.5 67l46 258q9 38 32 67t53.5 49t66 30t70.5 10t67.5 -10
t56 -30t36 -49t8.5 -67l-5 -27h-149q3 19 -3.5 33.5t-34.5 14.5z" />
    <glyph glyph-name="H" unicode="H" horiz-adv-x="480" 
d="M281 0l40 229h-82l-40 -229h-149l96 550h149l-35 -199h82l35 199h149l-96 -550h-149z" />
    <glyph glyph-name="I" unicode="I" horiz-adv-x="249" 
d="M146 550h149l-96 -550h-149z" />
    <glyph glyph-name="J" unicode="J" horiz-adv-x="426" 
d="M40 182h145l-4 -19q-4 -23 3 -30t28 -8q21 1 31.5 15t13.5 33l66 377h149l-71 -404q-9 -38 -30.5 -67t-50 -49t-63 -30t-69.5 -10t-65.5 9t-52 27t-32 45.5t-6.5 65.5z" />
    <glyph glyph-name="K" unicode="K" horiz-adv-x="483" 
d="M241 241l-42 -241h-149l96 550h149l-37 -210l147 210h149l-181 -259l100 -291h-149z" />
    <glyph glyph-name="L" unicode="L" horiz-adv-x="361" 
d="M221 125h149l-22 -125h-298l96 550h149z" />
    <glyph glyph-name="M" unicode="M" horiz-adv-x="600" 
d="M247 272l-47 -272h-150l96 550h150l53 -270l147 270h150l-96 -550h-150l47 272l-103 -179h-57z" />
    <glyph glyph-name="N" unicode="N" horiz-adv-x="513" 
d="M411 550h148l-96 -550h-148l-68 267l-47 -267h-150l96 550h150l61 -307z" />
    <glyph glyph-name="O" unicode="O" horiz-adv-x="452" 
d="M324 560q35 0 66 -10t53 -30t33 -49t7 -67l-46 -258q-9 -38 -30.5 -67t-50 -49t-63 -30t-69.5 -10t-66 10t-53 30t-33 49t-7 67l46 258q9 38 30.5 67t50 49t63 30t69.5 10zM329 377q3 19 -2.5 33t-26.5 15q-21 -1 -31.5 -15t-13.5 -33l-38 -215q-3 -19 2.5 -33t26.5 -15
q21 1 31.5 15t13.5 33z" />
    <glyph glyph-name="P" unicode="P" horiz-adv-x="438" 
d="M146 550h182q35 0 66 -10t53 -30t33 -49t7 -67l-14 -79q-9 -38 -30.5 -67t-50 -49t-63 -30t-69.5 -10h-33l-28 -159h-149zM333 367q4 19 -1.5 33.5t-26.5 14.5h-33l-22 -121h33q21 0 31.5 14.5t14.5 33.5z" />
    <glyph glyph-name="Q" unicode="Q" horiz-adv-x="472" 
d="M261 -8q-7 -1 -13.5 -1.5t-13.5 -0.5q-35 0 -66 10t-53 30t-33 49t-7 67l46 258q9 38 30.5 67t50 49t63 30t69.5 10t66 -10t53 -30t33 -49t7 -67l-46 -258q-8 -33 -25.5 -59t-40.5 -46l40 -44l-91 -83zM339 377q3 19 -2.5 33t-26.5 15q-21 -1 -31.5 -15t-13.5 -33
l-36 -204q-3 -19 2.5 -33t26.5 -15q21 1 31.5 15t13.5 33z" />
    <glyph glyph-name="R" unicode="R" horiz-adv-x="460" 
d="M253 170h-25l-29 -170h-149l96 550h182q35 0 66 -10t53 -30t33 -49t7 -67l-12 -68q-10 -38 -31 -67t-49 -49l45 -210h-149zM333 367q4 19 -1.5 33.5t-26.5 14.5h-33l-20 -110h33q21 0 31.5 14.5t14.5 33.5z" />
    <glyph glyph-name="S" unicode="S" horiz-adv-x="415" 
d="M438 416q-18 2 -35 4q-14 2 -28.5 3t-23.5 1q-10 0 -23 -0.5t-25 -4.5t-21 -12t-12 -23q-1 -8 10 -21t28.5 -30.5t37 -38t36 -43t25.5 -46.5t5 -47q-14 -81 -74 -124.5t-157 -43.5q-23 0 -46 4q-20 3 -42.5 10.5t-39.5 21.5l20 113q17 -7 35 -12q16 -5 36.5 -8.5
t41.5 -3.5q26 0 42 8t21 32q3 15 -8 29t-28.5 29l-38.5 33t-37 41t-24.5 52t-1.5 68q4 20 18 46.5t39 50t61 40t83 16.5q12 0 31 -0.5t40 -2.5t41.5 -5.5t35.5 -9.5z" />
    <glyph glyph-name="T" unicode="T" horiz-adv-x="384" 
d="M117 0l74 425h-87l22 125h324l-22 -125h-88l-74 -425h-149z" />
    <glyph glyph-name="U" unicode="U" horiz-adv-x="472" 
d="M518 550l-71 -404q-9 -38 -30.5 -67t-50 -49t-63 -30t-69.5 -10t-66 10t-53 30t-33 49t-7 67l71 404h149l-66 -377q-3 -19 2.5 -33t26.5 -15q21 1 31.5 15t13.5 33l66 377h149z" />
    <glyph glyph-name="V" unicode="V" horiz-adv-x="460" 
d="M144 0l-38 550h154l-6 -409l138 409h154l-230 -550h-172z" />
    <glyph glyph-name="W" unicode="W" horiz-adv-x="653" 
d="M740 551l-211 -551h-141v337l-122 -337h-139l-20 551h149l-5 -344l106 344h143l-16 -344l110 344h146z" />
    <glyph glyph-name="X" unicode="X" horiz-adv-x="450" 
d="M249 139l-78 -139h-171l196 275l-100 275h169l33 -135l76 135h169l-193 -275l100 -275h-171z" />
    <glyph glyph-name="Y" unicode="Y" horiz-adv-x="436" 
d="M356 550h156l-186 -342l-36 -208h-148l36 208l-62 342h153l19 -170z" />
    <glyph glyph-name="Z" unicode="Z" horiz-adv-x="404" 
d="M40 0l22 125l227 300h-175l22 125h324l-22 -125l-227 -300h175l-22 -125h-324z" />
    <glyph glyph-name="bracketleft" unicode="[" horiz-adv-x="377" 
d="M190 685h237l-22 -125h-88l-101 -574h88l-22 -125h-237z" />
    <glyph glyph-name="backslash" unicode="\" horiz-adv-x="507" 
d="M174 593h161l93 -642h-161z" />
    <glyph glyph-name="bracketright" unicode="]" horiz-adv-x="377" 
d="M282 -139h-237l22 125h88l101 574h-88l22 125h237z" />
    <glyph glyph-name="asciicircum" unicode="^" horiz-adv-x="516" 
d="M329 410l-78 -126h-131l174 266h120l82 -266h-131z" />
    <glyph glyph-name="underscore" unicode="_" horiz-adv-x="464" 
d="M64 -34h324l-23 -125h-324z" />
    <glyph glyph-name="grave" unicode="`" horiz-adv-x="330" 
d="M166 550h148l4 -221h-102z" />
    <glyph glyph-name="a" unicode="a" 
d="M455 0h-156l-5 94h-101l-29 -94h-154l230 550h175zM295 215l7 195l-66 -195h59z" />
    <glyph glyph-name="b" unicode="b" horiz-adv-x="450" 
d="M496 404q-11 -60 -32.5 -89t-49.5 -40q11 -6 20.5 -14t15 -21.5t6.5 -34.5t-5 -53q-8 -44 -29 -73.5t-50 -47t-63.5 -24.5t-69.5 -7h-189l96 550h189q35 0 67 -7.5t55 -24.5t34 -45t5 -69zM308 179q3 19 -4 27.5t-28 8.5h-53l-15 -90h53q21 0 30.5 7.5t13.5 26.5z
M344 380q3 19 -4 27.5t-28 8.5h-53l-16 -90h53q21 0 31 7.5t13 26.5z" />
    <glyph glyph-name="c" unicode="c" horiz-adv-x="397" 
d="M76 266q16 93 48 150.5t71 89.5t81 43t78 11q21 0 38.5 -2.5t31.5 -5.5q15 -4 28 -8l-21 -121q-38 12 -66 12q-58 0 -92 -46t-47 -118q-12 -68 7.5 -112t75.5 -44q28 0 70 12l-21 -121q-14 -4 -31 -8q-14 -3 -33 -5.5t-40 -2.5q-35 0 -72.5 10.5t-65 40.5t-40.5 84t0 141
z" />
    <glyph glyph-name="d" unicode="d" horiz-adv-x="444" 
d="M319 550q35 0 66 -10t53 -29.5t33 -48.5t7 -67l-42 -239q-9 -38 -30.5 -67t-50 -49t-63 -30t-69.5 -10h-173l96 550h173zM324 368q4 19 -1.5 33.5t-26.5 14.5h-24l-52 -292h24q21 0 31.5 14.5t14.5 33.5z" />
    <glyph glyph-name="e" unicode="e" horiz-adv-x="383" 
d="M273 425l-14 -83h122l-22 -122h-122l-16 -95h149l-22 -125h-298l96 550h298l-22 -125h-149z" />
    <glyph glyph-name="f" unicode="f" horiz-adv-x="378" 
d="M50 0l96 550h298l-22 -125h-149l-14 -83h122l-22 -122h-122l-38 -220h-149z" />
    <glyph glyph-name="g" unicode="g" horiz-adv-x="480" 
d="M309 425q-28 0 -39.5 -14.5t-14.5 -33.5l-38 -214q-3 -19 3.5 -33.5t34.5 -14.5t39.5 14.5t14.5 33.5l9 51h-47l19 109h196l-56 -323h-61l-11 34q-22 -18 -55 -31t-70 -13q-35 0 -67.5 10t-56 30t-36 49t-8.5 67l46 258q9 38 32 67t53.5 49t66 30t70.5 10t67.5 -10
t56 -30t36 -49t8.5 -67l-5 -27h-149q3 19 -3.5 33.5t-34.5 14.5z" />
    <glyph glyph-name="h" unicode="h" horiz-adv-x="480" 
d="M281 0l40 229h-82l-40 -229h-149l96 550h149l-35 -199h82l35 199h149l-96 -550h-149z" />
    <glyph glyph-name="i" unicode="i" horiz-adv-x="249" 
d="M146 550h149l-96 -550h-149z" />
    <glyph glyph-name="j" unicode="j" horiz-adv-x="426" 
d="M40 182h145l-4 -19q-4 -23 3 -30t28 -8q21 1 31.5 15t13.5 33l66 377h149l-71 -404q-9 -38 -30.5 -67t-50 -49t-63 -30t-69.5 -10t-65.5 9t-52 27t-32 45.5t-6.5 65.5z" />
    <glyph glyph-name="k" unicode="k" horiz-adv-x="483" 
d="M241 241l-42 -241h-149l96 550h149l-37 -210l147 210h149l-181 -259l100 -291h-149z" />
    <glyph glyph-name="l" unicode="l" horiz-adv-x="361" 
d="M221 125h149l-22 -125h-298l96 550h149z" />
    <glyph glyph-name="m" unicode="m" horiz-adv-x="600" 
d="M247 272l-47 -272h-150l96 550h150l53 -270l147 270h150l-96 -550h-150l47 272l-103 -179h-57z" />
    <glyph glyph-name="n" unicode="n" horiz-adv-x="513" 
d="M411 550h148l-96 -550h-148l-68 267l-47 -267h-150l96 550h150l61 -307z" />
    <glyph glyph-name="o" unicode="o" horiz-adv-x="452" 
d="M324 560q35 0 66 -10t53 -30t33 -49t7 -67l-46 -258q-9 -38 -30.5 -67t-50 -49t-63 -30t-69.5 -10t-66 10t-53 30t-33 49t-7 67l46 258q9 38 30.5 67t50 49t63 30t69.5 10zM329 377q3 19 -2.5 33t-26.5 15q-21 -1 -31.5 -15t-13.5 -33l-38 -215q-3 -19 2.5 -33t26.5 -15
q21 1 31.5 15t13.5 33z" />
    <glyph glyph-name="p" unicode="p" horiz-adv-x="438" 
d="M146 550h182q35 0 66 -10t53 -30t33 -49t7 -67l-14 -79q-9 -38 -30.5 -67t-50 -49t-63 -30t-69.5 -10h-33l-28 -159h-149zM333 367q4 19 -1.5 33.5t-26.5 14.5h-33l-22 -121h33q21 0 31.5 14.5t14.5 33.5z" />
    <glyph glyph-name="q" unicode="q" horiz-adv-x="472" 
d="M261 -8q-7 -1 -13.5 -1.5t-13.5 -0.5q-35 0 -66 10t-53 30t-33 49t-7 67l46 258q9 38 30.5 67t50 49t63 30t69.5 10t66 -10t53 -30t33 -49t7 -67l-46 -258q-8 -33 -25.5 -59t-40.5 -46l40 -44l-91 -83zM339 377q3 19 -2.5 33t-26.5 15q-21 -1 -31.5 -15t-13.5 -33
l-36 -204q-3 -19 2.5 -33t26.5 -15q21 1 31.5 15t13.5 33z" />
    <glyph glyph-name="r" unicode="r" horiz-adv-x="460" 
d="M253 170h-25l-29 -170h-149l96 550h182q35 0 66 -10t53 -30t33 -49t7 -67l-12 -68q-10 -38 -31 -67t-49 -49l45 -210h-149zM333 367q4 19 -1.5 33.5t-26.5 14.5h-33l-20 -110h33q21 0 31.5 14.5t14.5 33.5z" />
    <glyph glyph-name="s" unicode="s" horiz-adv-x="415" 
d="M438 416q-18 2 -35 4q-14 2 -28.5 3t-23.5 1q-10 0 -23 -0.5t-25 -4.5t-21 -12t-12 -23q-1 -8 10 -21t28.5 -30.5t37 -38t36 -43t25.5 -46.5t5 -47q-14 -81 -74 -124.5t-157 -43.5q-23 0 -46 4q-20 3 -42.5 10.5t-39.5 21.5l20 113q17 -7 35 -12q16 -5 36.5 -8.5
t41.5 -3.5q26 0 42 8t21 32q3 15 -8 29t-28.5 29l-38.5 33t-37 41t-24.5 52t-1.5 68q4 20 18 46.5t39 50t61 40t83 16.5q12 0 31 -0.5t40 -2.5t41.5 -5.5t35.5 -9.5z" />
    <glyph glyph-name="t" unicode="t" horiz-adv-x="384" 
d="M117 0l74 425h-87l22 125h324l-22 -125h-88l-74 -425h-149z" />
    <glyph glyph-name="u" unicode="u" horiz-adv-x="472" 
d="M518 550l-71 -404q-9 -38 -30.5 -67t-50 -49t-63 -30t-69.5 -10t-66 10t-53 30t-33 49t-7 67l71 404h149l-66 -377q-3 -19 2.5 -33t26.5 -15q21 1 31.5 15t13.5 33l66 377h149z" />
    <glyph glyph-name="v" unicode="v" horiz-adv-x="460" 
d="M144 0l-38 550h154l-6 -409l138 409h154l-230 -550h-172z" />
    <glyph glyph-name="w" unicode="w" horiz-adv-x="653" 
d="M740 551l-211 -551h-141v337l-122 -337h-139l-20 551h149l-5 -344l106 344h143l-16 -344l110 344h146z" />
    <glyph glyph-name="x" unicode="x" horiz-adv-x="450" 
d="M249 139l-78 -139h-171l196 275l-100 275h169l33 -135l76 135h169l-193 -275l100 -275h-171z" />
    <glyph glyph-name="y" unicode="y" horiz-adv-x="436" 
d="M356 550h156l-186 -342l-36 -208h-148l36 208l-62 342h153l19 -170z" />
    <glyph glyph-name="z" unicode="z" horiz-adv-x="404" 
d="M40 0l22 125l227 300h-175l22 125h324l-22 -125l-227 -300h175l-22 -125h-324z" />
    <glyph glyph-name="braceleft" unicode="{" horiz-adv-x="447" 
d="M349 343q-6 -25 -19.5 -45t-45.5 -37q26 -17 32.5 -37.5t3.5 -44.5l-24 -138q-6 -33 3.5 -44t39.5 -11h35l-22 -125h-104q-38 0 -62 11t-36 29t-14.5 40t1.5 45l30 169q3 17 -0.5 30.5t-25.5 13.5h-36l21 124h36q17 0 28 13.5t14 30.5l34 193q4 22 14.5 44.5t29 40.5
t46 29t65.5 11h104l-22 -125h-35q-30 0 -43.5 -11t-18.5 -44z" />
    <glyph glyph-name="bar" unicode="|" horiz-adv-x="289" 
d="M174 593h149l-113 -642h-149z" />
    <glyph glyph-name="braceright" unicode="}" horiz-adv-x="447" 
d="M247 505q5 33 -4.5 44t-39.5 11h-35l22 125h104q38 0 62 -11t36 -29t14.5 -40.5t-1.5 -44.5l-34 -193q-3 -17 3 -30.5t23 -13.5h36l-21 -124h-36q-22 0 -30.5 -13.5t-11.5 -30.5l-30 -169q-4 -23 -14.5 -45t-29 -40t-46 -29t-65.5 -11h-104l22 125h35q30 0 43.5 11
t19.5 44l24 138q6 24 20 44.5t46 37.5q-28 17 -34 37t-3 45z" />
    <glyph glyph-name="asciitilde" unicode="~" horiz-adv-x="431" 
d="M396 203q-23 -15 -44 -19t-33 -4q-13 0 -23.5 7t-21 15.5t-23 15.5t-28.5 7q-32 0 -60.5 -6.5t-59.5 -30.5l19 112q31 24 53.5 32.5t52.5 8.5q21 0 36 -6.5t27.5 -15t24 -15t24.5 -6.5q12 0 33 5t43 13z" />
    <glyph glyph-name="uni00A0" unicode="&#xa0;" horiz-adv-x="641" 
 />
    <glyph glyph-name="exclamdown" unicode="&#xa1;" horiz-adv-x="296" 
d="M136 267h118l-49 -384h-156zM165 433h118l-20 -111h-118z" />
    <glyph glyph-name="cent" unicode="&#xa2;" horiz-adv-x="467" 
d="M336 631h89l-13 -72q17 -2 32 -4.5t26 -4.5q12 -3 22 -6l-21 -121q-38 12 -66 12q-58 0 -92 -46t-47 -118q-12 -68 7.5 -112t75.5 -44q28 0 70 12l-21 -121q-12 -3 -25 -6q-12 -2 -27.5 -5t-33.5 -4l-13 -73h-89l15 82q-27 8 -52 26t-41.5 49t-22 78t6.5 113
q13 71 35 121t49.5 83.5t58.5 52t62 27.5z" />
    <glyph glyph-name="sterling" unicode="&#xa3;" horiz-adv-x="502" 
d="M127 324h66q19 74 47.5 120t61.5 72t68.5 35t68.5 9q21 0 36.5 -2.5t26.5 -5.5q12 -4 21 -8l-21 -121q-19 6 -28 9t-24 3q-47 0 -71 -30t-37 -81h109l-22 -125h-111l-13 -74h149l-22 -125h-298l35 199h-64z" />
    <glyph glyph-name="currency" unicode="&#xa4;" horiz-adv-x="564" 
d="M350 390q21 0 41.5 -7t37.5 -16l61 53l64 -75l-68 -58q5 -31 -1 -61q-6 -39 -22 -67l44 -56l-88 -81l-45 59q-38 -19 -82 -19q-42 0 -74 19l-67 -59l-58 81l64 56q-4 14 -3.5 30.5t3.5 36.5q3 15 8.5 31t12.5 30l-48 58l92 75l41 -53q20 9 43 16t44 7zM311 169
q23 0 43 16.5t24 39.5q5 23 -9.5 40t-37.5 17t-42.5 -17t-24.5 -40q-4 -23 10 -39.5t37 -16.5z" />
    <glyph glyph-name="yen" unicode="&#xa5;" horiz-adv-x="536" 
d="M169 344h35l-38 206h153l19 -170l68 170h156l-112 -206h43l-22 -125h-89l-6 -11l-3 -17h93l-22 -125h-93l-11 -66h-148l11 66h-83l22 125h83l3 17l-2 11h-79z" />
    <glyph glyph-name="brokenbar" unicode="&#xa6;" horiz-adv-x="289" 
d="M174 593h149l-44 -251h-149zM105 202h149l-44 -251h-149z" />
    <glyph glyph-name="section" unicode="&#xa7;" horiz-adv-x="627" 
d="M610 416q-18 2 -35 4q-14 2 -28.5 3t-23.5 1q-10 0 -23 -0.5t-25 -4.5t-21 -12t-12 -23q-1 -5 3.5 -11.5t11.5 -14.5q15 -17 38.5 -40t45 -49.5t35 -54.5t8.5 -56q-12 -69 -56.5 -110.5t-116.5 -52.5v-10.5t-1 -10.5q-14 -81 -74.5 -124.5t-157.5 -43.5q-23 0 -46 4
q-20 3 -42 10.5t-39 21.5l20 113q17 -7 35 -12q16 -5 36 -8.5t41 -3.5q26 0 42.5 8t20.5 32q3 15 -8 29t-28.5 29t-38 33t-36.5 41t-24.5 52t-1.5 68q3 18 15 42t33.5 46.5t52 40t70.5 22.5q0 15 3 33q4 20 18 46.5t39 50t61 40t83 16.5q12 0 31 -0.5t40 -2.5t41.5 -5.5
t35.5 -9.5zM358 115q26 0 42 8t21 32q2 11 -4 25.5t-16 28t-23 22.5t-25 9h-4q-10 0 -23 -0.5t-25 -4.5t-21 -12t-12 -23q-2 -13 5 -28t20 -27.5t30 -21t35 -8.5z" />
    <glyph glyph-name="dieresis" unicode="&#xa8;" horiz-adv-x="450" 
d="M166 550h135l-23 -135h-135zM341 550h135l-23 -135h-135z" />
    <glyph glyph-name="copyright" unicode="&#xa9;" horiz-adv-x="709" 
d="M452 560q59 0 107 -22.5t80 -61t45 -90.5t3 -111q-11 -59 -42.5 -110.5t-77 -90t-101 -61t-114.5 -22.5t-107 22.5t-79.5 61t-45 90t-2.5 110.5q10 59 41.5 111t77 90.5t101 61t114.5 22.5zM364 61q45 0 87.5 17t77 46t58 68t31.5 83q8 45 -2 84.5t-34 68.5t-60.5 46
t-81.5 17q-44 0 -86 -17t-76.5 -46t-58 -68.5t-31.5 -84.5q-8 -44 2 -83t34 -68t60 -46t80 -17zM269 272q10 56 29.5 91t43 54.5t49 26t46.5 6.5q13 0 24 -1.5t19 -3.5q9 -3 16 -5l-13 -73q-11 5 -21 6t-19 1q-35 0 -55 -27.5t-28 -70.5q-8 -42 3.5 -68.5t45.5 -26.5
q16 0 43 8l-13 -73q-8 -3 -18 -5q-18 -5 -45 -5q-21 0 -43.5 6.5t-39 24.5t-24.5 50.5t0 84.5z" />
    <glyph glyph-name="ordfeminine" unicode="&#xaa;" horiz-adv-x="385" 
d="M173 542q14 4 30.5 7t33 5.5t31 4t25.5 1.5q61 0 86 -26t13 -96l-33 -186h-101l5 30q-17 -20 -33.5 -25.5t-24.5 -5.5q-91 0 -73 104q4 23 16.5 39t30 26.5t39.5 15.5t45 5q8 0 11 -0.5t12 -2.5q1 18 -4.5 21t-19.5 3t-35 -2t-47 -10zM248 337q21 0 31 19l2 7h-4
q-42 0 -43 -11q-2 -8 0 -11.5t14 -3.5z" />
    <glyph glyph-name="guillemotleft" unicode="&#xab;" horiz-adv-x="664" 
d="M248 478h161l-136 -239l52 -239h-161l-52 239zM517 478h161l-136 -239l52 -239h-161l-52 239z" />
    <glyph glyph-name="logicalnot" unicode="&#xac;" horiz-adv-x="526" 
d="M128 329h386l-44 -246h-149l21 121h-237z" />
    <glyph glyph-name="uni00AD" unicode="&#xad;" horiz-adv-x="513" 
 />
    <glyph glyph-name="registered" unicode="&#xae;" horiz-adv-x="709" 
d="M452 560q59 0 107 -22.5t80 -61t45 -90.5t3 -111q-11 -59 -42.5 -110.5t-77 -90t-101 -61t-114.5 -22.5t-107 22.5t-79.5 61t-45 90t-2.5 110.5q10 59 41.5 111t77 90.5t101 61t114.5 22.5zM364 61q45 0 87.5 17t77 46t58 68t31.5 83q8 45 -2 84.5t-34 68.5t-60.5 46
t-81.5 17q-44 0 -86 -17t-76.5 -46t-58 -68.5t-31.5 -84.5q-8 -44 2 -83t34 -68t60 -46t80 -17zM384 211h-16l-17 -97h-91l57 326h112q44 0 73 -24t24 -72l-6 -36q-6 -23 -19 -41t-30 -31l26 -122h-91zM432 328q2 11 -1 20.5t-16 9.5h-21l-11 -63h21q13 0 19.5 9t8.5 20v4z
" />
    <glyph glyph-name="macron" unicode="&#xaf;" horiz-adv-x="464" 
d="M166 550h324l-22 -125h-324z" />
    <glyph glyph-name="degree" unicode="&#xb0;" horiz-adv-x="395" 
d="M295 560q29 0 51 -11t35 -30.5t17.5 -45.5t-0.5 -55t-18.5 -54.5t-33.5 -44.5t-45.5 -30t-54.5 -11t-50.5 11t-35 30t-18 44.5t0.5 54.5t18.5 55t33.5 45.5t45.5 30.5t54.5 11zM263 377q17 0 22 12t8 29t2.5 29.5t-17.5 12.5t-23 -12.5t-9 -29.5t-1.5 -29t18.5 -12z" />
    <glyph glyph-name="plusminus" unicode="&#xb1;" horiz-adv-x="509" 
d="M233 298h-111l22 125h111l24 137h149l-24 -137h109l-22 -125h-109l-23 -129h-149zM92 125h369l-22 -125h-369z" />
    <glyph glyph-name="twosuperior" unicode="&#xb2;" horiz-adv-x="401" 
d="M150 456q6 36 22.5 56.5t37.5 31t44 13.5t41 3q19 0 42 -3t41.5 -13t29 -28t5.5 -48l-2 -11q-4 -23 -17.5 -41t-30 -31t-32.5 -21.5t-24 -12.5h84l-16 -92h-251l12 68q2 1 14 9t29 19.5t36.5 25.5t36.5 27t28.5 23.5t12.5 16.5l2 8q3 18 -15 18q-16 0 -19 -18l-3 -17
h-111z" />
    <glyph glyph-name="threesuperior" unicode="&#xb3;" horiz-adv-x="404" 
d="M243 249q-58 0 -90 22.5t-23 73.5h111q-2 -9 0.5 -18.5t13.5 -9.5q10 0 15 6.5t7 16.5l2 6q2 9 -0.5 15t-14.5 6h-23l12 68h23q9 0 14.5 4.5t8.5 21.5q2 14 -16 14q-19 0 -22 -21h-111q9 52 49 79t99 27q128 0 120 -79l-6 -33q-4 -14 -10.5 -24.5t-24.5 -19.5
q14 -9 17.5 -20.5t2.5 -24.5l-6 -33q-20 -77 -148 -77z" />
    <glyph glyph-name="acute" unicode="&#xb4;" horiz-adv-x="337" 
d="M239 380h-102l78 169h148z" />
    <glyph glyph-name="mu" unicode="&#xb5;" horiz-adv-x="513" 
d="M167 550h149l-66 -377q-3 -19 2.5 -33t26.5 -15q21 1 31.5 15t13.5 33l66 377h149l-71 -404q-9 -38 -30.5 -67t-50 -49t-63 -30t-69.5 -10q-19 0 -37 3l-30 -172h-150z" />
    <glyph glyph-name="paragraph" unicode="&#xb6;" horiz-adv-x="640" 
d="M389 -177l102 577h-44l-102 -577h-149l50 284q-32 9 -57.5 28.5t-42 46t-22.5 59.5t0 69q7 41 28 77t51 64.5t67.5 46.5t77.5 23h313l-123 -698h-149z" />
    <glyph glyph-name="periodcentered" unicode="&#xb7;" horiz-adv-x="290" 
d="M124 308h150l-27 -150h-150z" />
    <glyph glyph-name="cedilla" unicode="&#xb8;" horiz-adv-x="337" 
d="M153 -65h102l-79 -169h-148z" />
    <glyph glyph-name="onesuperior" unicode="&#xb9;" horiz-adv-x="319" 
d="M183 278l28 159l-69 -24l19 107l76 30h108l-47 -272h-115z" />
    <glyph glyph-name="ordmasculine" unicode="&#xba;" horiz-adv-x="395" 
d="M295 560q29 0 51 -11t35 -30.5t17.5 -45.5t-0.5 -55t-18.5 -54.5t-33.5 -44.5t-45.5 -30t-54.5 -11t-50.5 11t-35 30t-18 44.5t0.5 54.5t18.5 55t33.5 45.5t45.5 30.5t54.5 11zM263 377q17 0 22 12t8 29t2.5 29.5t-17.5 12.5t-23 -12.5t-9 -29.5t-1.5 -29t18.5 -12z" />
    <glyph glyph-name="guillemotright" unicode="&#xbb;" horiz-adv-x="664" 
d="M636 239l-136 -239h-161l136 239l-52 239h161zM367 239l-136 -239h-161l136 239l-52 239h161z" />
    <glyph glyph-name="onequarter" unicode="&#xbc;" horiz-adv-x="817" 
d="M183 278l28 159l-69 -24l19 107l76 30h108l-47 -272h-115zM361 0h-158l278 560h158zM753 39h-24l-6 -39h-115l6 39h-135l17 92l121 170h159l-30 -170h24zM631 131l11 65l-44 -65h33z" />
    <glyph glyph-name="onehalf" unicode="&#xbd;" horiz-adv-x="802" 
d="M183 278l28 159l-69 -24l19 107l76 30h108l-47 -272h-115zM361 0h-158l278 560h158zM505 197q6 36 23 56.5t38 31t44 13.5t41 3q19 0 41.5 -3t41 -13t29 -28t5.5 -48l-2 -11q-4 -23 -17.5 -41t-29.5 -31t-32 -21.5t-24 -12.5h84l-16 -92h-251l11 68q2 1 14 9t29.5 19.5
t37 25.5t36.5 27t28.5 23.5t12.5 16.5l1 8q3 18 -15 18q-16 0 -19 -18l-3 -17h-111z" />
    <glyph glyph-name="threequarters" unicode="&#xbe;" horiz-adv-x="895" 
d="M439 0h-158l278 560h158zM831 39h-24l-6 -39h-115l6 39h-135l17 92l121 170h159l-30 -170h24zM709 131l11 65l-44 -65h33zM243 249q-58 0 -90 22.5t-23 73.5h111q-2 -9 0.5 -18.5t13.5 -9.5q10 0 15 6.5t7 16.5l2 6q2 9 -0.5 15t-14.5 6h-23l12 68h23q9 0 14.5 4.5
t8.5 21.5q2 14 -16 14q-19 0 -22 -21h-111q9 52 49 79t99 27q128 0 120 -79l-6 -33q-4 -14 -10.5 -24.5t-24.5 -19.5q14 -9 17.5 -20.5t2.5 -24.5l-6 -33q-20 -77 -148 -77z" />
    <glyph glyph-name="questiondown" unicode="&#xbf;" horiz-adv-x="510" 
d="M379 356q-2 -9 -11.5 -24.5t-23.5 -33.5t-30 -37.5t-29.5 -36.5t-23 -30.5t-10.5 -19.5l-2 -15q-4 -17 1.5 -31t24.5 -14t28.5 14t13.5 31l5 33h151l-5 -33q-9 -47 -29.5 -79t-49.5 -52t-64 -29t-72 -9t-68 9.5t-52.5 27.5t-32.5 45t-7 62l4 23q3 17 23.5 47t45 62.5
t45 62.5t23.5 47l4 26h149zM394 433h-150l22 127h150z" />
    <glyph glyph-name="Agrave" unicode="&#xc0;" 
d="M455 0h-156l-5 94h-101l-29 -94h-154l230 550h175zM295 215l7 195l-66 -195h59zM220 782h148l20 -169h-102z" />
    <glyph glyph-name="Aacute" unicode="&#xc1;" 
d="M455 0h-156l-5 94h-101l-29 -94h-154l230 550h175zM295 215l7 195l-66 -195h59zM393 613h-102l78 169h148z" />
    <glyph glyph-name="Acircumflex" unicode="&#xc2;" 
d="M415 550h-175l-230 -550h154l29 94h101l5 -94h156zM236 215l66 195l-7 -195h-59zM433 817l56 -204h-126l-11 83l-39 -83h-126l128 204h118z" />
    <glyph glyph-name="Atilde" unicode="&#xc3;" 
d="M455 0h-156l-5 94h-101l-29 -94h-154l230 550h175zM295 215l7 195l-66 -195h59zM488 636q-23 -15 -44 -19t-33 -4q-13 0 -23.5 7t-21 15.5t-23 15.5t-28.5 7q-32 0 -60.5 -6.5t-60.5 -30.5l20 112q31 24 53 32.5t52 8.5q21 0 36 -6.5t27.5 -15t24 -15t24.5 -6.5
q12 0 33.5 5t43.5 13z" />
    <glyph glyph-name="Adieresis" unicode="&#xc4;" 
d="M455 0h-156l-5 94h-101l-29 -94h-154l230 550h175zM295 215l7 195l-66 -195h59zM206 748h135l-23 -135h-135zM381 748h135l-23 -135h-135z" />
    <glyph glyph-name="Aring" unicode="&#xc5;" 
d="M455 0h-156l-5 94h-101l-29 -94h-154l230 550h175zM295 215l7 195l-66 -195h59zM387 895q29 0 51 -11t35 -30.5t17.5 -45.5t-0.5 -55t-18.5 -54.5t-33.5 -44.5t-45.5 -30t-54.5 -11t-50.5 11t-35 30t-18 44.5t0.5 54.5t18.5 55t33.5 45.5t45.5 30.5t54.5 11zM356 718
q15 0 19.5 10.5t6.5 24.5q3 15 2.5 25.5t-15.5 10.5q-14 0 -19 -10.5t-8 -25.5q-2 -14 -1 -24.5t15 -10.5z" />
    <glyph glyph-name="AE" unicode="&#xc6;" horiz-adv-x="641" 
d="M531 425l-14 -83h122l-22 -122h-122l-16 -95h149l-22 -125h-298l16 94h-112l-49 -94h-153l300 550h392l-22 -125h-149zM345 215l35 195l-104 -195h69z" />
    <glyph glyph-name="Ccedilla" unicode="&#xc7;" horiz-adv-x="397" 
d="M76 266q16 93 48 150.5t71 89.5t81 43t78 11q21 0 38.5 -2.5t31.5 -5.5q15 -4 28 -8l-21 -121q-38 12 -66 12q-58 0 -92 -46t-47 -118q-12 -68 7.5 -112t75.5 -44q28 0 70 12l-21 -121q-14 -4 -31 -8q-14 -3 -33 -5.5t-40 -2.5q-35 0 -72.5 10.5t-65 40.5t-40.5 84t0 141
zM55 -234h148l79 169h-102z" />
    <glyph glyph-name="Egrave" unicode="&#xc8;" horiz-adv-x="383" 
d="M273 425l-14 -83h122l-22 -122h-122l-16 -95h149l-22 -125h-298l96 550h298l-22 -125h-149zM195 782h148l20 -169h-102z" />
    <glyph glyph-name="Eacute" unicode="&#xc9;" horiz-adv-x="383" 
d="M273 425l-14 -83h122l-22 -122h-122l-16 -95h149l-22 -125h-298l96 550h298l-22 -125h-149zM343 613h-102l78 169h148z" />
    <glyph glyph-name="Ecircumflex" unicode="&#xca;" horiz-adv-x="387" 
d="M422 425l22 125h-298l-96 -550h298l22 125h-149l16 95h122l22 122h-122l14 83h149zM404 817l56 -204h-126l-11 83l-39 -83h-126l128 204h118z" />
    <glyph glyph-name="Edieresis" unicode="&#xcb;" horiz-adv-x="395" 
d="M279 425l-14 -83h122l-22 -122h-122l-16 -95h149l-22 -125h-298l96 550h298l-22 -125h-149zM181 748h135l-23 -135h-135zM356 748h135l-23 -135h-135z" />
    <glyph glyph-name="Igrave" unicode="&#xcc;" horiz-adv-x="249" 
d="M146 550h149l-96 -550h-149zM118 782h148l20 -169h-102z" />
    <glyph glyph-name="Iacute" unicode="&#xcd;" horiz-adv-x="249" 
d="M146 550h149l-96 -550h-149zM287 613h-102l78 169h148z" />
    <glyph glyph-name="Icircumflex" unicode="&#xce;" horiz-adv-x="249" 
d="M50 0h149l96 550h-149zM327 817l56 -204h-126l-11 83l-39 -83h-126l128 204h118z" />
    <glyph glyph-name="Idieresis" unicode="&#xcf;" horiz-adv-x="249" 
d="M146 550h149l-96 -550h-149zM101 748h135l-23 -135h-135zM276 748h135l-23 -135h-135z" />
    <glyph glyph-name="Eth" unicode="&#xd0;" horiz-adv-x="489" 
d="M68 329h51l38 221h207q35 0 66 -10t53 -29.5t33 -48.5t7 -67l-42 -239q-9 -38 -30.5 -67t-50 -49t-63 -30t-69.5 -10h-207l35 204h-51zM369 368q4 19 -1.5 33.5t-26.5 14.5h-58l-15 -87h57l-23 -125h-57l-12 -69h58q21 0 31.5 14.5t14.5 33.5z" />
    <glyph glyph-name="Ntilde" unicode="&#xd1;" horiz-adv-x="513" 
d="M411 550h148l-96 -550h-148l-68 267l-47 -267h-150l96 550h150l61 -307zM515 636q-23 -15 -44 -19t-33 -4q-13 0 -23.5 7t-21 15.5t-23 15.5t-28.5 7q-32 0 -60.5 -6.5t-60.5 -30.5l20 112q31 24 53 32.5t52 8.5q21 0 36 -6.5t27.5 -15t24 -15t24.5 -6.5q12 0 33.5 5
t43.5 13z" />
    <glyph glyph-name="Ograve" unicode="&#xd2;" horiz-adv-x="452" 
d="M324 560q35 0 66 -10t53 -30t33 -49t7 -67l-46 -258q-9 -38 -30.5 -67t-50 -49t-63 -30t-69.5 -10t-66 10t-53 30t-33 49t-7 67l46 258q9 38 30.5 67t50 49t63 30t69.5 10zM329 377q3 19 -2.5 33t-26.5 15q-21 -1 -31.5 -15t-13.5 -33l-38 -215q-3 -19 2.5 -33t26.5 -15
q21 1 31.5 15t13.5 33zM220 782h148l20 -169h-102z" />
    <glyph glyph-name="Oacute" unicode="&#xd3;" horiz-adv-x="452" 
d="M324 560q35 0 66 -10t53 -30t33 -49t7 -67l-46 -258q-9 -38 -30.5 -67t-50 -49t-63 -30t-69.5 -10t-66 10t-53 30t-33 49t-7 67l46 258q9 38 30.5 67t50 49t63 30t69.5 10zM329 377q3 19 -2.5 33t-26.5 15q-21 -1 -31.5 -15t-13.5 -33l-38 -215q-3 -19 2.5 -33t26.5 -15
q21 1 31.5 15t13.5 33zM380 613h-102l78 169h148z" />
    <glyph glyph-name="Ocircumflex" unicode="&#xd4;" horiz-adv-x="452" 
d="M324 560q-35 0 -69.5 -10t-63 -30t-50 -49t-30.5 -67l-46 -258q-4 -38 7 -67t33 -49t53 -30t66 -10t69.5 10t63 30t50 49t30.5 67l46 258q4 38 -7 67t-33 49t-53 30t-66 10zM291 162q-3 -19 -13.5 -33t-31.5 -15q-21 1 -26.5 15t-2.5 33l38 215q3 19 13.5 33t31.5 15
q21 -1 26.5 -15t2.5 -33zM429 817l56 -204h-126l-11 83l-39 -83h-126l128 204h118z" />
    <glyph glyph-name="Otilde" unicode="&#xd5;" horiz-adv-x="452" 
d="M324 560q35 0 66 -10t53 -30t33 -49t7 -67l-46 -258q-9 -38 -30.5 -67t-50 -49t-63 -30t-69.5 -10t-66 10t-53 30t-33 49t-7 67l46 258q9 38 30.5 67t50 49t63 30t69.5 10zM329 377q3 19 -2.5 33t-26.5 15q-21 -1 -31.5 -15t-13.5 -33l-38 -215q-3 -19 2.5 -33t26.5 -15
q21 1 31.5 15t13.5 33zM483 636q-23 -15 -44 -19t-33 -4q-13 0 -23.5 7t-21 15.5t-23 15.5t-28.5 7q-32 0 -60.5 -6.5t-60.5 -30.5l20 112q31 24 53 32.5t52 8.5q21 0 36 -6.5t27.5 -15t24 -15t24.5 -6.5q12 0 33.5 5t43.5 13z" />
    <glyph glyph-name="Odieresis" unicode="&#xd6;" horiz-adv-x="452" 
d="M201 748h135l-23 -135h-135zM376 748h135l-23 -135h-135zM324 560q35 0 66 -10t53 -30t33 -49t7 -67l-46 -258q-9 -38 -30.5 -67t-50 -49t-63 -30t-69.5 -10t-66 10t-53 30t-33 49t-7 67l46 258q9 38 30.5 67t50 49t63 30t69.5 10zM329 377q3 19 -2.5 33t-26.5 15
q-21 -1 -31.5 -15t-13.5 -33l-38 -215q-3 -19 2.5 -33t26.5 -15q21 1 31.5 15t13.5 33z" />
    <glyph glyph-name="multiply" unicode="&#xd7;" horiz-adv-x="515" 
d="M504 335l-117 -99l82 -99l-104 -88l-81 99l-118 -99l-72 88l116 99l-81 99l104 89l82 -99l115 99z" />
    <glyph glyph-name="Oslash" unicode="&#xd8;" horiz-adv-x="452" 
d="M436 525q25 -20 38 -50t9 -71l-46 -258q-9 -38 -30.5 -67t-50 -49t-63 -30t-69.5 -10q-27 0 -51 6l-23 -45h-74l37 73q-26 20 -39 50t-9 72l46 258q9 38 30.5 67t50 49t63 30t69.5 10q28 0 52 -6l30 59h74zM311 273l-78 -157q8 -2 13 -2q21 1 31.5 15t13.5 33zM237 274
l74 149q-6 2 -11 2q-21 -1 -31.5 -15t-13.5 -33z" />
    <glyph glyph-name="Ugrave" unicode="&#xd9;" horiz-adv-x="472" 
d="M518 550l-71 -404q-9 -38 -30.5 -67t-50 -49t-63 -30t-69.5 -10t-66 10t-53 30t-33 49t-7 67l71 404h149l-66 -377q-3 -19 2.5 -33t26.5 -15q21 1 31.5 15t13.5 33l66 377h149zM224 782h148l20 -169h-102z" />
    <glyph glyph-name="Uacute" unicode="&#xda;" horiz-adv-x="472" 
d="M518 550l-71 -404q-9 -38 -30.5 -67t-50 -49t-63 -30t-69.5 -10t-66 10t-53 30t-33 49t-7 67l71 404h149l-66 -377q-3 -19 2.5 -33t26.5 -15q21 1 31.5 15t13.5 33l66 377h149zM392 613h-102l78 169h148z" />
    <glyph glyph-name="Ucircumflex" unicode="&#xdb;" horiz-adv-x="472" 
d="M369 550l-66 -377q-3 -19 -13.5 -33t-31.5 -15q-21 1 -26.5 15t-2.5 33l66 377h-149l-71 -404q-4 -38 7 -67t33 -49t53 -30t66 -10t69.5 10t63 30t50 49t30.5 67l71 404h-149zM439 817l56 -204h-126l-11 83l-39 -83h-126l128 204h118z" />
    <glyph glyph-name="Udieresis" unicode="&#xdc;" horiz-adv-x="472" 
d="M518 550l-71 -404q-9 -38 -30.5 -67t-50 -49t-63 -30t-69.5 -10t-66 10t-53 30t-33 49t-7 67l71 404h149l-66 -377q-3 -19 2.5 -33t26.5 -15q21 1 31.5 15t13.5 33l66 377h149zM211 748h135l-23 -135h-135zM386 748h135l-23 -135h-135z" />
    <glyph glyph-name="Yacute" unicode="&#xdd;" horiz-adv-x="436" 
d="M356 550h156l-186 -342l-36 -208h-148l36 208l-62 342h153l19 -170zM378 613h-102l78 169h148z" />
    <glyph glyph-name="Thorn" unicode="&#xde;" horiz-adv-x="438" 
d="M146 550h148l-15 -88h34q35 0 66 -10t52.5 -30t32.5 -49t7 -67l-13 -79q-9 -38 -30.5 -67t-50.5 -49t-63.5 -30t-69.5 -10h-33l-12 -71h-149zM318 279q3 19 -2.5 33.5t-26.5 14.5h-33l-21 -121h33q21 0 31.5 14.5t13.5 33.5z" />
    <glyph glyph-name="germandbls" unicode="&#xdf;" horiz-adv-x="474" 
d="M111 404q7 41 27.5 69t49.5 45t64 24.5t70 7.5h37q35 0 67.5 -7.5t55.5 -24.5t34 -45t4 -69q-11 -60 -32.5 -89t-49.5 -40q11 -6 20.5 -14t15 -21.5t6.5 -34.5t-5 -53q-8 -44 -29 -73.5t-50 -47t-63.5 -24.5t-69.5 -7l22 125q21 0 30.5 7.5t13.5 26.5l3 20q3 19 -4 27.5
t-28 8.5l20 111q21 0 31 7.5t13 26.5l4 20q3 19 -4 27.5t-28 8.5h-39q-20 0 -29.5 -8.5t-12.5 -27.5l-67 -377h-148z" />
    <glyph glyph-name="agrave" unicode="&#xe0;" 
d="M455 0h-156l-5 94h-101l-29 -94h-154l230 550h175zM295 215l7 195l-66 -195h59zM220 782h148l20 -169h-102z" />
    <glyph glyph-name="aacute" unicode="&#xe1;" 
d="M455 0h-156l-5 94h-101l-29 -94h-154l230 550h175zM295 215l7 195l-66 -195h59zM393 613h-102l78 169h148z" />
    <glyph glyph-name="acircumflex" unicode="&#xe2;" 
d="M415 550h-175l-230 -550h154l29 94h101l5 -94h156zM236 215l66 195l-7 -195h-59zM433 817l56 -204h-126l-11 83l-39 -83h-126l128 204h118z" />
    <glyph glyph-name="atilde" unicode="&#xe3;" 
d="M455 0h-156l-5 94h-101l-29 -94h-154l230 550h175zM295 215l7 195l-66 -195h59zM488 636q-23 -15 -44 -19t-33 -4q-13 0 -23.5 7t-21 15.5t-23 15.5t-28.5 7q-32 0 -60.5 -6.5t-60.5 -30.5l20 112q31 24 53 32.5t52 8.5q21 0 36 -6.5t27.5 -15t24 -15t24.5 -6.5
q12 0 33.5 5t43.5 13z" />
    <glyph glyph-name="adieresis" unicode="&#xe4;" 
d="M455 0h-156l-5 94h-101l-29 -94h-154l230 550h175zM295 215l7 195l-66 -195h59zM206 748h135l-23 -135h-135zM381 748h135l-23 -135h-135z" />
    <glyph glyph-name="aring" unicode="&#xe5;" 
d="M455 0h-156l-5 94h-101l-29 -94h-154l230 550h175zM295 215l7 195l-66 -195h59zM387 895q29 0 51 -11t35 -30.5t17.5 -45.5t-0.5 -55t-18.5 -54.5t-33.5 -44.5t-45.5 -30t-54.5 -11t-50.5 11t-35 30t-18 44.5t0.5 54.5t18.5 55t33.5 45.5t45.5 30.5t54.5 11zM356 718
q15 0 19.5 10.5t6.5 24.5q3 15 2.5 25.5t-15.5 10.5q-14 0 -19 -10.5t-8 -25.5q-2 -14 -1 -24.5t15 -10.5z" />
    <glyph glyph-name="ae" unicode="&#xe6;" horiz-adv-x="641" 
d="M531 425l-14 -83h122l-22 -122h-122l-16 -95h149l-22 -125h-298l16 94h-112l-49 -94h-153l300 550h392l-22 -125h-149zM345 215l35 195l-104 -195h69z" />
    <glyph glyph-name="ccedilla" unicode="&#xe7;" horiz-adv-x="397" 
d="M76 266q16 93 48 150.5t71 89.5t81 43t78 11q21 0 38.5 -2.5t31.5 -5.5q15 -4 28 -8l-21 -121q-38 12 -66 12q-58 0 -92 -46t-47 -118q-12 -68 7.5 -112t75.5 -44q28 0 70 12l-21 -121q-14 -4 -31 -8q-14 -3 -33 -5.5t-40 -2.5q-35 0 -72.5 10.5t-65 40.5t-40.5 84t0 141
zM55 -234h148l79 169h-102z" />
    <glyph glyph-name="egrave" unicode="&#xe8;" horiz-adv-x="383" 
d="M273 425l-14 -83h122l-22 -122h-122l-16 -95h149l-22 -125h-298l96 550h298l-22 -125h-149zM195 782h148l20 -169h-102z" />
    <glyph glyph-name="eacute" unicode="&#xe9;" horiz-adv-x="383" 
d="M273 425l-14 -83h122l-22 -122h-122l-16 -95h149l-22 -125h-298l96 550h298l-22 -125h-149zM343 613h-102l78 169h148z" />
    <glyph glyph-name="ecircumflex" unicode="&#xea;" horiz-adv-x="387" 
d="M422 425l22 125h-298l-96 -550h298l22 125h-149l16 95h122l22 122h-122l14 83h149zM404 817l56 -204h-126l-11 83l-39 -83h-126l128 204h118z" />
    <glyph glyph-name="edieresis" unicode="&#xeb;" horiz-adv-x="395" 
d="M279 425l-14 -83h122l-22 -122h-122l-16 -95h149l-22 -125h-298l96 550h298l-22 -125h-149zM181 748h135l-23 -135h-135zM356 748h135l-23 -135h-135z" />
    <glyph glyph-name="igrave" unicode="&#xec;" horiz-adv-x="249" 
d="M146 550h149l-96 -550h-149zM118 782h148l20 -169h-102z" />
    <glyph glyph-name="iacute" unicode="&#xed;" horiz-adv-x="249" 
d="M146 550h149l-96 -550h-149zM287 613h-102l78 169h148z" />
    <glyph glyph-name="icircumflex" unicode="&#xee;" horiz-adv-x="249" 
d="M50 0h149l96 550h-149zM327 817l56 -204h-126l-11 83l-39 -83h-126l128 204h118z" />
    <glyph glyph-name="idieresis" unicode="&#xef;" horiz-adv-x="249" 
d="M146 550h149l-96 -550h-149zM101 748h135l-23 -135h-135zM276 748h135l-23 -135h-135z" />
    <glyph glyph-name="eth" unicode="&#xf0;" horiz-adv-x="489" 
d="M68 329h51l38 221h207q35 0 66 -10t53 -29.5t33 -48.5t7 -67l-42 -239q-9 -38 -30.5 -67t-50 -49t-63 -30t-69.5 -10h-207l35 204h-51zM369 368q4 19 -1.5 33.5t-26.5 14.5h-58l-15 -87h57l-23 -125h-57l-12 -69h58q21 0 31.5 14.5t14.5 33.5z" />
    <glyph glyph-name="ntilde" unicode="&#xf1;" horiz-adv-x="513" 
d="M411 550h148l-96 -550h-148l-68 267l-47 -267h-150l96 550h150l61 -307zM515 636q-23 -15 -44 -19t-33 -4q-13 0 -23.5 7t-21 15.5t-23 15.5t-28.5 7q-32 0 -60.5 -6.5t-60.5 -30.5l20 112q31 24 53 32.5t52 8.5q21 0 36 -6.5t27.5 -15t24 -15t24.5 -6.5q12 0 33.5 5
t43.5 13z" />
    <glyph glyph-name="ograve" unicode="&#xf2;" horiz-adv-x="452" 
d="M324 560q35 0 66 -10t53 -30t33 -49t7 -67l-46 -258q-9 -38 -30.5 -67t-50 -49t-63 -30t-69.5 -10t-66 10t-53 30t-33 49t-7 67l46 258q9 38 30.5 67t50 49t63 30t69.5 10zM329 377q3 19 -2.5 33t-26.5 15q-21 -1 -31.5 -15t-13.5 -33l-38 -215q-3 -19 2.5 -33t26.5 -15
q21 1 31.5 15t13.5 33zM220 782h148l20 -169h-102z" />
    <glyph glyph-name="oacute" unicode="&#xf3;" horiz-adv-x="452" 
d="M324 560q35 0 66 -10t53 -30t33 -49t7 -67l-46 -258q-9 -38 -30.5 -67t-50 -49t-63 -30t-69.5 -10t-66 10t-53 30t-33 49t-7 67l46 258q9 38 30.5 67t50 49t63 30t69.5 10zM329 377q3 19 -2.5 33t-26.5 15q-21 -1 -31.5 -15t-13.5 -33l-38 -215q-3 -19 2.5 -33t26.5 -15
q21 1 31.5 15t13.5 33zM380 613h-102l78 169h148z" />
    <glyph glyph-name="ocircumflex" unicode="&#xf4;" horiz-adv-x="452" 
d="M324 560q-35 0 -69.5 -10t-63 -30t-50 -49t-30.5 -67l-46 -258q-4 -38 7 -67t33 -49t53 -30t66 -10t69.5 10t63 30t50 49t30.5 67l46 258q4 38 -7 67t-33 49t-53 30t-66 10zM291 162q-3 -19 -13.5 -33t-31.5 -15q-21 1 -26.5 15t-2.5 33l38 215q3 19 13.5 33t31.5 15
q21 -1 26.5 -15t2.5 -33zM429 817l56 -204h-126l-11 83l-39 -83h-126l128 204h118z" />
    <glyph glyph-name="otilde" unicode="&#xf5;" horiz-adv-x="452" 
d="M324 560q35 0 66 -10t53 -30t33 -49t7 -67l-46 -258q-9 -38 -30.5 -67t-50 -49t-63 -30t-69.5 -10t-66 10t-53 30t-33 49t-7 67l46 258q9 38 30.5 67t50 49t63 30t69.5 10zM329 377q3 19 -2.5 33t-26.5 15q-21 -1 -31.5 -15t-13.5 -33l-38 -215q-3 -19 2.5 -33t26.5 -15
q21 1 31.5 15t13.5 33zM483 636q-23 -15 -44 -19t-33 -4q-13 0 -23.5 7t-21 15.5t-23 15.5t-28.5 7q-32 0 -60.5 -6.5t-60.5 -30.5l20 112q31 24 53 32.5t52 8.5q21 0 36 -6.5t27.5 -15t24 -15t24.5 -6.5q12 0 33.5 5t43.5 13z" />
    <glyph glyph-name="odieresis" unicode="&#xf6;" horiz-adv-x="452" 
d="M201 748h135l-23 -135h-135zM376 748h135l-23 -135h-135zM324 560q35 0 66 -10t53 -30t33 -49t7 -67l-46 -258q-9 -38 -30.5 -67t-50 -49t-63 -30t-69.5 -10t-66 10t-53 30t-33 49t-7 67l46 258q9 38 30.5 67t50 49t63 30t69.5 10zM329 377q3 19 -2.5 33t-26.5 15
q-21 -1 -31.5 -15t-13.5 -33l-38 -215q-3 -19 2.5 -33t26.5 -15q21 1 31.5 15t13.5 33z" />
    <glyph glyph-name="divide" unicode="&#xf7;" horiz-adv-x="539" 
d="M128 329h399l-23 -125h-399zM273 448q6 31 32 53t57 22t49 -22t12 -53q-5 -31 -31 -53t-57 -22t-49 22t-13 53zM209 84q6 31 32 53t57 22t49 -22t12 -53q-5 -31 -31 -53t-57 -22t-49 22t-13 53z" />
    <glyph glyph-name="oslash" unicode="&#xf8;" horiz-adv-x="452" 
d="M436 525q25 -20 38 -50t9 -71l-46 -258q-9 -38 -30.5 -67t-50 -49t-63 -30t-69.5 -10q-27 0 -51 6l-23 -45h-74l37 73q-26 20 -39 50t-9 72l46 258q9 38 30.5 67t50 49t63 30t69.5 10q28 0 52 -6l30 59h74zM311 273l-78 -157q8 -2 13 -2q21 1 31.5 15t13.5 33zM237 274
l74 149q-6 2 -11 2q-21 -1 -31.5 -15t-13.5 -33z" />
    <glyph glyph-name="ugrave" unicode="&#xf9;" horiz-adv-x="472" 
d="M518 550l-71 -404q-9 -38 -30.5 -67t-50 -49t-63 -30t-69.5 -10t-66 10t-53 30t-33 49t-7 67l71 404h149l-66 -377q-3 -19 2.5 -33t26.5 -15q21 1 31.5 15t13.5 33l66 377h149zM224 782h148l20 -169h-102z" />
    <glyph glyph-name="uacute" unicode="&#xfa;" horiz-adv-x="472" 
d="M518 550l-71 -404q-9 -38 -30.5 -67t-50 -49t-63 -30t-69.5 -10t-66 10t-53 30t-33 49t-7 67l71 404h149l-66 -377q-3 -19 2.5 -33t26.5 -15q21 1 31.5 15t13.5 33l66 377h149zM392 613h-102l78 169h148z" />
    <glyph glyph-name="ucircumflex" unicode="&#xfb;" horiz-adv-x="472" 
d="M369 550l-66 -377q-3 -19 -13.5 -33t-31.5 -15q-21 1 -26.5 15t-2.5 33l66 377h-149l-71 -404q-4 -38 7 -67t33 -49t53 -30t66 -10t69.5 10t63 30t50 49t30.5 67l71 404h-149zM439 817l56 -204h-126l-11 83l-39 -83h-126l128 204h118z" />
    <glyph glyph-name="udieresis" unicode="&#xfc;" horiz-adv-x="472" 
d="M518 550l-71 -404q-9 -38 -30.5 -67t-50 -49t-63 -30t-69.5 -10t-66 10t-53 30t-33 49t-7 67l71 404h149l-66 -377q-3 -19 2.5 -33t26.5 -15q21 1 31.5 15t13.5 33l66 377h149zM211 748h135l-23 -135h-135zM386 748h135l-23 -135h-135z" />
    <glyph glyph-name="yacute" unicode="&#xfd;" horiz-adv-x="436" 
d="M356 550h156l-186 -342l-36 -208h-148l36 208l-62 342h153l19 -170zM378 613h-102l78 169h148z" />
    <glyph glyph-name="thorn" unicode="&#xfe;" horiz-adv-x="438" 
d="M146 550h148l-15 -88h34q35 0 66 -10t52.5 -30t32.5 -49t7 -67l-13 -79q-9 -38 -30.5 -67t-50.5 -49t-63.5 -30t-69.5 -10h-33l-12 -71h-149zM318 279q3 19 -2.5 33.5t-26.5 14.5h-33l-21 -121h33q21 0 31.5 14.5t13.5 33.5z" />
    <glyph glyph-name="ydieresis" unicode="&#xff;" horiz-adv-x="436" 
d="M356 550h156l-186 -342l-36 -208h-148l36 208l-62 342h153l19 -170zM194 748h135l-23 -135h-135zM369 748h135l-23 -135h-135z" />
    <glyph glyph-name="dotlessi" unicode="&#x131;" horiz-adv-x="249" 
d="M120 401h149l-70 -401h-149z" />
    <glyph glyph-name="Lslash" unicode="&#x141;" horiz-adv-x="392" 
d="M401 125l-22 -125h-298l37 210l-74 -12l26 147l73 12l34 193h149l-29 -167l84 14l-26 -147l-84 -14l-19 -111h149z" />
    <glyph glyph-name="lslash" unicode="&#x142;" horiz-adv-x="321" 
d="M355 250l-84 -14l-41 -236h-149l37 210l-74 -12l26 147l73 12l34 193h149l-29 -167l84 14z" />
    <glyph glyph-name="OE" unicode="&#x152;" horiz-adv-x="666" 
d="M556 425l-14 -83h122l-22 -122h-122l-16 -95h149l-22 -125h-295q-14 -4 -35.5 -7t-46.5 -3q-35 0 -73 10.5t-66.5 40.5t-41 84t2.5 141q16 93 48 150.5t71 89.5t81 43t78 11q25 0 45 -3.5t33 -6.5h295l-22 -125h-149zM226 271q-12 -68 7.5 -112t75.5 -44q17 0 45 5
l54 309q-23 6 -43 6q-58 0 -92 -46t-47 -118z" />
    <glyph glyph-name="oe" unicode="&#x153;" horiz-adv-x="666" 
d="M556 425l-14 -83h122l-22 -122h-122l-16 -95h149l-22 -125h-295q-14 -4 -35.5 -7t-46.5 -3q-35 0 -73 10.5t-66.5 40.5t-41 84t2.5 141q16 93 48 150.5t71 89.5t81 43t78 11q25 0 45 -3.5t33 -6.5h295l-22 -125h-149zM226 271q-12 -68 7.5 -112t75.5 -44q17 0 45 5
l54 309q-23 6 -43 6q-58 0 -92 -46t-47 -118z" />
    <glyph glyph-name="Scaron" unicode="&#x160;" horiz-adv-x="415" 
d="M438 416q-18 2 -35 4q-14 2 -28.5 3t-23.5 1q-10 0 -23 -0.5t-25 -4.5t-21 -12t-12 -23q-1 -8 10 -21t28.5 -30.5t37 -38t36 -43t25.5 -46.5t5 -47q-14 -81 -74 -124.5t-157 -43.5q-23 0 -46 4q-20 3 -42.5 10.5t-39.5 21.5l20 113q17 -7 35 -12q16 -5 36.5 -8.5
t41.5 -3.5q26 0 42 8t21 32q3 15 -8 29t-28.5 29l-38.5 33t-37 41t-24.5 52t-1.5 68q4 20 18 46.5t39 50t61 40t83 16.5q12 0 31 -0.5t40 -2.5t41.5 -5.5t35.5 -9.5zM264 613l-56 204h126l10 -83l40 83h126l-128 -204h-118z" />
    <glyph glyph-name="scaron" unicode="&#x161;" horiz-adv-x="415" 
d="M438 416q-18 2 -35 4q-14 2 -28.5 3t-23.5 1q-10 0 -23 -0.5t-25 -4.5t-21 -12t-12 -23q-1 -8 10 -21t28.5 -30.5t37 -38t36 -43t25.5 -46.5t5 -47q-14 -81 -74 -124.5t-157 -43.5q-23 0 -46 4q-20 3 -42.5 10.5t-39.5 21.5l20 113q17 -7 35 -12q16 -5 36.5 -8.5
t41.5 -3.5q26 0 42 8t21 32q3 15 -8 29t-28.5 29l-38.5 33t-37 41t-24.5 52t-1.5 68q4 20 18 46.5t39 50t61 40t83 16.5q12 0 31 -0.5t40 -2.5t41.5 -5.5t35.5 -9.5zM264 613l-56 204h126l10 -83l40 83h126l-128 -204h-118z" />
    <glyph glyph-name="Ydieresis" unicode="&#x178;" horiz-adv-x="436" 
d="M356 550h156l-186 -342l-36 -208h-148l36 208l-62 342h153l19 -170zM194 748h135l-23 -135h-135zM369 748h135l-23 -135h-135z" />
    <glyph glyph-name="Zcaron" unicode="&#x17d;" horiz-adv-x="404" 
d="M364 0l22 125h-175l227 300l22 125h-324l-22 -125h175l-227 -300l-22 -125h324zM254 613l-56 204h126l10 -83l40 83h126l-128 -204h-118z" />
    <glyph glyph-name="zcaron" unicode="&#x17e;" horiz-adv-x="404" 
d="M364 0l22 125h-175l227 300l22 125h-324l-22 -125h175l-227 -300l-22 -125h324zM254 613l-56 204h126l10 -83l40 83h126l-128 -204h-118z" />
    <glyph glyph-name="florin" unicode="&#x192;" horiz-adv-x="327" 
d="M382 427q-12 6 -21.5 7t-19.5 1q-12 0 -21 -8.5t-15 -20t-10 -24t-6 -21.5h93l-25 -110h-98l-117 -431h-120l117 431h-85l25 110h87q23 85 63.5 136.5t106.5 51.5q8 0 28 -1.5t56 -12.5z" />
    <glyph glyph-name="circumflex" unicode="&#x2c6;" horiz-adv-x="442" 
d="M378 560l56 -204h-126l-10 83l-40 -83h-126l128 204h118z" />
    <glyph glyph-name="caron" unicode="&#x2c7;" horiz-adv-x="442" 
d="M224 356l-56 204h126l11 -83l39 83h126l-128 -204h-118z" />
    <glyph glyph-name="breve" unicode="&#x2d8;" horiz-adv-x="434" 
d="M462 560q-7 -41 -24 -69t-40 -46t-51 -26t-57 -8t-54 8.5t-42.5 26.5t-25 46.5t-0.5 67.5h107q-4 -23 7.5 -33.5t25.5 -10.5q15 0 29 10t18 34h107z" />
    <glyph glyph-name="dotaccent" unicode="&#x2d9;" horiz-adv-x="290" 
d="M168 560h150l-26 -150h-150z" />
    <glyph glyph-name="ring" unicode="&#x2da;" horiz-adv-x="395" 
d="M293 550q29 0 51 -11t35 -30.5t17.5 -45.5t-0.5 -55t-18.5 -54.5t-33.5 -44.5t-45.5 -30t-54.5 -11t-50.5 11t-35 30t-18 44.5t0.5 54.5t18.5 55t33.5 45.5t45.5 30.5t54.5 11zM262 373q15 0 19.5 10.5t6.5 24.5q3 15 2.5 25.5t-15.5 10.5q-14 0 -19 -10.5t-8 -25.5
q-2 -14 -1 -24.5t15 -10.5z" />
    <glyph glyph-name="ogonek" unicode="&#x2db;" horiz-adv-x="337" 
d="M225 -234h-148l-19 169h102z" />
    <glyph glyph-name="tilde" unicode="&#x2dc;" horiz-adv-x="431" 
d="M435 422q-23 -15 -44 -19t-33 -4q-13 0 -23.5 7t-21 15.5t-23 15.5t-28.5 7q-32 0 -60.5 -6.5t-60.5 -30.5l20 112q31 24 53 32.5t52 8.5q21 0 36.5 -6.5t28 -15t24 -15t24.5 -6.5q12 0 33 5t43 13z" />
    <glyph glyph-name="hungarumlaut" unicode="&#x2dd;" horiz-adv-x="540" 
d="M442 381h-102l78 169h148zM239 381h-102l78 169h148z" />
    <glyph glyph-name="pi" unicode="&#x3c0;" horiz-adv-x="696" 
d="M389 0l52 300h-83l-52 -300h-149l52 300h-87l22 125h556l-22 -125h-88l-52 -300h-149z" />
    <glyph glyph-name="ZWSP" unicode="&#x200b;" horiz-adv-x="0" 
 />
    <glyph glyph-name="endash" unicode="&#x2013;" horiz-adv-x="493" 
d="M128 329h353l-23 -125h-353z" />
    <glyph glyph-name="emdash" unicode="&#x2014;" horiz-adv-x="604" 
d="M128 329h464l-23 -125h-464z" />
    <glyph glyph-name="quoteleft" unicode="&#x2018;" horiz-adv-x="337" 
d="M261 550h102l-78 -169h-148z" />
    <glyph glyph-name="quoteright" unicode="&#x2019;" horiz-adv-x="337" 
d="M239 381h-102l78 169h148z" />
    <glyph glyph-name="quotesinglbase" unicode="&#x201a;" horiz-adv-x="337" 
d="M154 -100h-102l79 169h148z" />
    <glyph glyph-name="quotedblleft" unicode="&#x201c;" horiz-adv-x="540" 
d="M261 550h102l-78 -169h-148zM464 550h102l-78 -169h-148z" />
    <glyph glyph-name="quotedblright" unicode="&#x201d;" horiz-adv-x="540" 
d="M442 381h-102l78 169h148zM239 381h-102l78 169h148z" />
    <glyph glyph-name="quotedblbase" unicode="&#x201e;" horiz-adv-x="540" 
d="M357 -100h-102l79 169h148zM154 -100h-102l79 169h148z" />
    <glyph glyph-name="dagger" unicode="&#x2020;" horiz-adv-x="464" 
d="M128 -164l72 413h-87l22 125h87l31 176h149l-31 -176h88l-22 -125h-88l-72 -413h-149z" />
    <glyph glyph-name="daggerdbl" unicode="&#x2021;" horiz-adv-x="464" 
d="M92 125h87l21 124h-87l22 125h87l31 176h149l-31 -176h88l-22 -125h-88l-21 -124h88l-22 -125h-88l-29 -164h-149l29 164h-87z" />
    <glyph glyph-name="bullet" unicode="&#x2022;" horiz-adv-x="290" 
d="M125 312h150l-27 -150h-150z" />
    <glyph glyph-name="ellipsis" unicode="&#x2026;" horiz-adv-x="814" 
d="M94 140h150l-26 -150h-150zM356 140h150l-26 -150h-150zM618 140h150l-26 -150h-150z" />
    <glyph glyph-name="perthousand" unicode="&#x2030;" horiz-adv-x="996" 
d="M339 0h-156l308 550h156zM276 550q20 0 38.5 -6.5t31.5 -18.5t20 -29.5t5 -39.5l-8 -43q-11 -44 -48.5 -68.5t-78.5 -24.5q-20 0 -38 6.5t-31.5 18.5t-20 29t-4.5 39l8 43q11 44 48 69t78 25zM275 434q2 11 -0.5 18.5t-13.5 7.5t-16.5 -7.5t-7.5 -18.5t1 -18t13 -8
q12 1 17 8t7 18zM594 230q41 0 70 -25t24 -69l-7 -43q-11 -44 -48.5 -68.5t-78.5 -24.5q-20 0 -38 6.5t-31.5 18.5t-20 29t-4.5 39l7 43q6 22 19 39.5t30 29.5t37.5 18.5t40.5 6.5zM593 114q2 11 -1 18.5t-14 7.5t-16 -7.5t-7 -18.5t0.5 -18t13.5 -8q11 1 16.5 8t7.5 18z
M855 230q41 0 70 -25t24 -69l-7 -43q-11 -44 -48.5 -68.5t-78.5 -24.5q-20 0 -38 6.5t-31.5 18.5t-20 29t-4.5 39l7 43q6 22 19 39.5t30 29.5t37.5 18.5t40.5 6.5zM854 114q2 11 -1 18.5t-14 7.5t-16 -7.5t-7 -18.5t0.5 -18t13.5 -8q11 1 16.5 8t7.5 18z" />
    <glyph glyph-name="guilsinglleft" unicode="&#x2039;" horiz-adv-x="427" 
d="M124 309l314 152l-25 -143l-167 -81l138 -80l-25 -143l-260 152z" />
    <glyph glyph-name="guilsinglright" unicode="&#x203a;" horiz-adv-x="427" 
d="M386 166l-314 -152l25 143l166 80l-137 81l25 143l260 -152z" />
    <glyph glyph-name="fraction" unicode="&#x2044;" horiz-adv-x="507" 
d="M222 -49h-161l319 642h161z" />
    <glyph glyph-name="Euro" unicode="&#x20ac;" horiz-adv-x="514" 
d="M452 435q-52 0 -88 -41h81l-18 -102h-109q-4 -15 -6 -31h110l-18 -102h-83q20 -44 75 -44q28 0 70 12l-21 -121q-14 -4 -31 -8q-14 -3 -33 -5.5t-40 -2.5q-29 0 -59.5 7t-56.5 25.5t-44 51.5t-22 85h-61l18 102h47l5 31h-47l18 102h62q23 51 52.5 83.5t62 51t64.5 25
t61 6.5q21 0 38.5 -2.5t31.5 -5.5q15 -4 28 -8l-21 -121q-38 12 -66 12z" />
    <glyph glyph-name="trademark" unicode="&#x2122;" horiz-adv-x="716" 
d="M160 226l38 214h-51l19 110h212l-19 -110h-52l-38 -214h-109zM481 358l-24 -132h-109l57 324h119l27 -128l70 128h121l-57 -324h-110l24 132l-61 -105h-34z" />
    <glyph glyph-name="Omega" unicode="&#x2126;" horiz-adv-x="586" 
d="M367 425q-21 -1 -31.5 -15t-13.5 -33l-35 -200q-3 -17 -2.5 -25.5t3 -13t6 -7t5.5 -5.5l-22 -126h-207l22 125h63q-10 17 -12.5 43.5t2.5 51.5l33 184q9 38 30.5 67t50 49t63 30t69.5 10t66 -10t53 -30t33 -49t7 -67l-33 -184q-5 -25 -15.5 -51.5t-26.5 -43.5h63
l-22 -125h-207l22 126q3 3 7 5.5t8 7t8 13t7 25.5l35 200q3 19 -2.5 33t-26.5 15z" />
    <glyph glyph-name="partialdiff" unicode="&#x2202;" horiz-adv-x="513" 
d="M163 488q38 37 85 54.5t98 17.5q35 0 67.5 -10t56 -30t36 -49t8.5 -67l-46 -258q-10 -38 -31.5 -67t-50 -49t-63 -30t-69.5 -10t-66 10t-53 30t-33 49t-7 67l12 66q9 38 30 66t49 46.5t61.5 27.5t68.5 9q10 0 21 -2t19 -7l4 25q3 19 -7 33.5t-31 14.5q-32 0 -59 -8.5
t-50 -27.5zM297 233q-21 0 -31.5 -14.5t-14.5 -33.5l-2 -12q-3 -19 2.5 -33.5t26.5 -14.5t31.5 14.5t13.5 33.5l2 12q4 19 -1.5 33.5t-26.5 14.5z" />
    <glyph glyph-name="Delta" unicode="&#x2206;" horiz-adv-x="659" 
d="M490 550l99 -550h-519l294 550h126zM272 125h157l-41 224z" />
    <glyph glyph-name="product" unicode="&#x220f;" horiz-adv-x="696" 
d="M369 -113l95 539h-83l-95 -539h-149l95 539h-87l22 125h556l-22 -125h-88l-95 -539h-149z" />
    <glyph glyph-name="summation" unicode="&#x2211;" horiz-adv-x="438" 
d="M144 421l22 129h298l-22 -125h-149l68 -198l-137 -198h149l-22 -125h-298l22 129l136 194z" />
    <glyph glyph-name="minus" unicode="&#x2212;" horiz-adv-x="464" 
d="M128 329h324l-23 -125h-324z" />
    <glyph glyph-name="radical" unicode="&#x221a;" horiz-adv-x="608" 
d="M164 0l-29 372h143l-4 -231l138 409h222l-22 -125h-98l-178 -425h-172z" />
    <glyph glyph-name="infinity" unicode="&#x221e;" horiz-adv-x="980" 
d="M712 84q-65 0 -109.5 30t-78.5 76q-50 -46 -106 -76t-120 -30q-54 0 -92.5 9t-61 31.5t-29 60.5t3.5 95l2 14q10 57 30 95t50.5 60.5t72.5 31.5t96 9q68 0 112 -29t77 -75q49 43 104 73.5t121 30.5q53 0 91 -9t60.5 -31.5t29 -60.5t-3.5 -95l-2 -14q-10 -57 -30 -95
t-50.5 -60.5t-72 -31.5t-94.5 -9zM348 363q-39 0 -63 -13t-32 -56l-2 -14q-8 -42 11.5 -55.5t58.5 -13.5q29 0 65 21.5t72 53.5q-25 29 -53 53t-57 24zM762 363q-14 0 -31 -7t-36 -18t-38 -25t-35 -27q25 -32 54 -53.5t59 -21.5q39 0 62 13.5t31 55.5l2 14q8 43 -10.5 56
t-57.5 13z" />
    <glyph glyph-name="integral" unicode="&#x222b;" horiz-adv-x="727" 
d="M721 368h-145l4 19q4 23 -3 30t-28 8q-21 -1 -31.5 -15t-13.5 -33l-40 -226q-9 -38 -30.5 -67t-50 -49t-63 -30t-69.5 -10t-65.5 9t-52 27t-32 45.5t-6.5 65.5l7 45h145l-3 -19q-4 -23 3 -30t27 -8q22 1 32 15t14 33l40 226q9 38 30.5 67t50 49t63 30t69.5 10t65.5 -9
t52 -27t32 -45.5t6.5 -65.5z" />
    <glyph glyph-name="approxequal" unicode="&#x2248;" horiz-adv-x="431" 
d="M403 243q-23 -15 -44 -19t-33 -4q-13 0 -23.5 7t-21 15.5t-23 15.5t-28.5 7q-32 0 -60.5 -6.5t-59.5 -30.5l19 112q31 24 53.5 32.5t52.5 8.5q21 0 36 -6.5t27.5 -15t24 -15t24.5 -6.5q12 0 33 5t43 13zM375 84q-23 -15 -44 -19t-33 -4q-13 0 -23.5 7t-21 15.5t-23 15.5
t-28.5 7q-32 0 -60.5 -6.5t-59.5 -30.5l19 112q31 24 53.5 32.5t52.5 8.5q21 0 36 -6.5t27.5 -15t24 -15t24.5 -6.5q12 0 33 5t43 13z" />
    <glyph glyph-name="notequal" unicode="&#x2260;" horiz-adv-x="439" 
d="M131 346h130l32 65h129l-32 -65h40l-23 -125h-82l-18 -36h94l-22 -125h-136l-30 -60h-129l30 60h-34l22 125h76l18 36h-88z" />
    <glyph glyph-name="lessequal" unicode="&#x2264;" horiz-adv-x="464" 
d="M92 125h324l-22 -125h-324zM143 419l347 126l-26 -143l-198 -55l179 -55l-25 -143l-302 127z" />
    <glyph glyph-name="greaterequal" unicode="&#x2265;" horiz-adv-x="464" 
d="M394 0h-324l22 125h324zM442 276l-346 -127l25 143l199 55l-180 55l26 143l301 -126z" />
    <glyph glyph-name="lozenge" unicode="&#x25ca;" horiz-adv-x="478" 
d="M325 0h-172l-35 275l131 275h172l35 -275zM318 275l-7 134l-55 -134l7 -134z" />
    <glyph glyph-name="uni25CC" unicode="&#x25cc;" horiz-adv-x="512" 
 />
    <glyph glyph-name="NULL" horiz-adv-x="0" 
 />
    <glyph glyph-name="Superstore" horiz-adv-x="645" 
d="M321 505q53 0 99 -20t80.5 -54.5t54.5 -80.5t20 -99q0 -52 -20 -97.5t-54.5 -79.5t-80.5 -54t-99 -20q-52 0 -97.5 20t-79.5 54t-54 79.5t-20 97.5q0 53 20 99t54 80.5t79.5 54.5t97.5 20zM428 90q14 0 23 5.5t9 21.5q0 17 -5.5 23.5t-18.5 6.5v133q0 26 -9.5 43
t-22.5 28q5 2 9.5 2h9.5h9.5t9.5 -2h11v65q-31 -4 -61.5 -11.5t-53.5 -20.5q-9 2 -17 2h-20q-23 0 -44 -3t-44 -11v-63h6q19 6 39.5 11t36.5 5q9 0 21.5 -0.5t24.5 -4.5t20 -13t8 -25l-82 -8q-18 -2 -36 -6t-33 -14t-24 -27t-9 -45q0 -42 28.5 -67t73.5 -25q11 0 22 0.5
t21 2.5v54l-6 4q-7 -3 -12 -3.5t-11 -0.5q-16 0 -30.5 9t-14.5 32q0 8 3.5 13.5t15.5 9.5t34.5 8t59.5 10v-71q0 -36 10 -52t40 -16h9z" />
    </font>
</defs>
</svg>
